<svg width="1250" height="1079" viewBox="0 0 1250 1079" fill="none" xmlns="http://www.w3.org/2000/svg">
<path d="M-2 1080H1160C1160 1080 1238 1022 1249 846.5C1260 671 1137.89 661.713 1109 529.5C1064.66 326.548 1265.81 97.9895 1160 0H-2V1080Z" fill="#E0E9FF"/>
<path d="M441.549 193.87C531.387 130.663 911.261 123.552 894.791 316.246C889.128 382.533 1020.66 427.843 998.234 554.054C898.891 735.741 749.623 740.298 749.623 740.298L376.451 732.702C376.451 732.702 158 649.521 158 451.602C158 253.683 351.711 257.076 441.549 193.87Z" fill="#5680F9" fill-opacity="0.09"/>
<path d="M497.355 246.225C636.803 349.438 886.97 286.677 870.706 437.248C865.111 489.043 954.948 539.269 932.8 637.891C919.662 692.07 707.702 740.305 707.702 740.305H332.204C332.204 740.305 175.47 680.893 175.47 526.243C175.47 371.593 357.91 143.012 497.355 246.225Z" fill="#5655D2" fill-opacity="0.11"/>
<path d="M231.767 443.033C231.452 442.363 231.407 441.597 231.644 440.896C231.919 439.939 232.408 439.056 233.073 438.315L238.177 433.07C237.268 430.726 236.678 428.27 236.425 425.768L231.007 423.457C229.276 422.564 227.313 421.554 226.643 420.393C226.409 420.017 226.333 419.563 226.433 419.131L229.252 406.934C229.372 406.575 229.569 406.247 229.83 405.974C230.09 405.7 230.408 405.487 230.76 405.35C231.713 404.914 232.757 404.716 233.803 404.772L242.287 405.547C244.431 402.814 247.065 400.504 250.054 398.735L250.065 391.932C250.119 390.609 250.296 389.294 250.594 388.004C250.937 386.799 251.467 386.171 252.259 386.033L264.584 383.86C265.189 383.794 265.796 383.97 266.271 384.349C266.92 384.824 267.458 385.434 267.848 386.138C268.044 386.478 268.212 386.834 268.351 387.202L271.035 395.574C274.013 396.292 276.855 397.491 279.447 399.124L285.356 396.985C286.617 396.583 287.913 396.3 289.227 396.139C290.478 396.049 291.249 396.332 291.652 397.03L297.91 407.869C298.066 408.213 298.146 408.588 298.141 408.965C298.137 409.343 298.05 409.716 297.885 410.056C297.486 411.025 296.858 411.882 296.055 412.555L291.685 415.941C292.463 418.979 292.725 422.127 292.458 425.252L296.941 427.646C298.496 428.628 300.257 429.741 300.917 430.883C301.057 431.099 301.148 431.342 301.183 431.597C301.218 431.851 301.196 432.11 301.12 432.355L297.252 444.258C297.101 444.605 296.876 444.914 296.592 445.164C296.308 445.414 295.973 445.598 295.61 445.703C294.624 446.055 293.567 446.162 292.53 446.014L282.766 444.254C281.765 445.109 280.705 445.894 279.595 446.603L280.283 453.246C280.368 454.567 280.329 455.893 280.166 457.207C279.952 458.442 279.491 459.122 278.715 459.343L266.685 462.793C266.341 462.859 265.987 462.853 265.646 462.774C265.305 462.694 264.984 462.544 264.705 462.332C263.913 461.79 263.257 461.072 262.79 460.234C262.72 460.112 262.648 459.988 262.587 459.859L258.419 450.4C256.487 449.977 254.605 449.354 252.803 448.539L245.829 452.232C244.637 452.806 243.393 453.267 242.114 453.608C240.888 453.872 240.089 453.697 239.589 453.064L231.883 443.201C231.841 443.147 231.802 443.091 231.767 443.033ZM272.858 419.763C271.547 417.498 269.391 415.845 266.862 415.167C264.334 414.49 261.641 414.843 259.372 416.149C257.107 417.461 255.455 419.617 254.777 422.145C254.1 424.673 254.453 427.367 255.759 429.635C257.07 431.9 259.226 433.553 261.755 434.23C264.283 434.908 266.976 434.555 269.245 433.248C271.51 431.937 273.163 429.781 273.84 427.252C274.517 424.724 274.164 422.03 272.857 419.762L272.858 419.763Z" fill="#A8B4DE"/>
<path d="M277.926 479.207C277.784 478.906 277.763 478.561 277.868 478.245C277.99 477.815 278.208 477.419 278.506 477.086L280.786 474.731C280.376 473.676 280.108 472.571 279.991 471.445L277.558 470.399C276.806 470.097 276.135 469.623 275.599 469.015C275.494 468.846 275.459 468.642 275.503 468.448L276.751 462.966C276.804 462.805 276.892 462.658 277.008 462.535C277.125 462.413 277.267 462.317 277.425 462.256C277.852 462.061 278.32 461.973 278.788 461.999L282.593 462.358C283.55 461.132 284.729 460.096 286.067 459.303L286.065 456.243C286.088 455.649 286.165 455.057 286.298 454.477C286.45 453.936 286.687 453.654 287.042 453.592L292.565 452.629C292.837 452.6 293.109 452.68 293.322 452.851C293.615 453.066 293.857 453.342 294.033 453.659C294.121 453.813 294.197 453.973 294.26 454.138L295.473 457.907C296.811 458.235 298.087 458.778 299.25 459.516L301.897 458.561C302.462 458.381 303.042 458.255 303.63 458.183C304.191 458.144 304.537 458.272 304.719 458.587L307.538 463.469C307.608 463.624 307.644 463.792 307.643 463.962C307.641 464.132 307.603 464.3 307.53 464.453C307.352 464.888 307.072 465.272 306.712 465.574L304.757 467.092C305.11 468.459 305.232 469.875 305.116 471.282L307.129 472.363C307.817 472.725 308.424 473.221 308.915 473.823C308.978 473.92 309.019 474.03 309.035 474.144C309.051 474.259 309.042 474.375 309.008 474.486L307.29 479.838C307.223 479.993 307.122 480.132 306.995 480.244C306.868 480.356 306.718 480.438 306.555 480.486C306.113 480.642 305.639 480.689 305.175 480.622L300.795 479.817C300.348 480.201 299.874 480.554 299.377 480.871L299.693 483.86C299.733 484.454 299.717 485.05 299.646 485.641C299.551 486.196 299.346 486.502 298.998 486.601L293.609 488.138C293.454 488.167 293.294 488.164 293.141 488.127C292.988 488.09 292.844 488.022 292.719 487.925C292.363 487.679 292.07 487.355 291.86 486.977C291.829 486.923 291.796 486.867 291.769 486.809L289.889 482.548C289.021 482.356 288.176 482.073 287.368 481.705L284.246 483.357C283.712 483.614 283.155 483.82 282.582 483.972C282.033 484.089 281.67 484.011 281.449 483.724L277.983 479.278C277.962 479.256 277.943 479.232 277.926 479.207ZM296.322 468.793C295.737 467.774 294.771 467.029 293.637 466.721C292.502 466.414 291.292 466.568 290.272 467.152C289.256 467.744 288.517 468.714 288.217 469.85C287.916 470.987 288.078 472.196 288.668 473.213C289.254 474.232 290.22 474.977 291.354 475.285C292.488 475.592 293.698 475.438 294.719 474.854C295.735 474.262 296.474 473.291 296.774 472.154C297.075 471.017 296.912 469.808 296.321 468.791L296.322 468.793Z" fill="#2252F1"/>
<path d="M824.607 463.601C823.983 462.275 823.896 460.759 824.364 459.371C824.908 457.476 825.875 455.729 827.192 454.262L837.296 443.879C835.496 439.239 834.33 434.378 833.83 429.426L823.104 424.852C819.678 423.085 815.794 421.08 814.469 418.787C814.005 418.042 813.854 417.143 814.051 416.288L819.628 392.147C819.865 391.437 820.255 390.788 820.772 390.247C821.288 389.705 821.918 389.284 822.615 389.014C824.5 388.15 826.567 387.757 828.638 387.868L845.43 389.402C849.673 383.992 854.886 379.419 860.803 375.916L860.825 362.45C860.931 359.832 861.282 357.23 861.873 354.677C862.551 352.289 863.599 351.048 865.172 350.77L889.571 346.467C890.769 346.337 891.969 346.685 892.911 347.436C894.197 348.377 895.263 349.588 896.035 350.982C896.423 351.657 896.756 352.361 897.03 353.089L902.342 369.66C908.239 371.083 913.864 373.46 918.996 376.695L930.691 372.46C933.188 371.664 935.754 371.104 938.355 370.786C940.831 370.607 942.356 371.168 943.154 372.55L955.54 394.004C955.851 394.685 956.007 395.426 955.999 396.174C955.991 396.922 955.818 397.659 955.492 398.333C954.703 400.25 953.46 401.947 951.869 403.278L943.218 409.982C944.762 415.998 945.281 422.23 944.755 428.418L953.624 433.153C956.702 435.096 960.188 437.298 961.494 439.56C961.771 439.986 961.951 440.468 962.02 440.972C962.09 441.475 962.047 441.988 961.895 442.473L954.239 466.034C953.941 466.72 953.495 467.332 952.934 467.827C952.372 468.321 951.709 468.686 950.99 468.895C949.037 469.591 946.944 469.802 944.891 469.51L925.564 466.025C923.585 467.722 921.489 469.278 919.294 470.684L920.656 483.83C920.824 486.445 920.747 489.07 920.426 491.67C920.001 494.116 919.086 495.462 917.554 495.9L893.741 502.728C893.06 502.861 892.36 502.848 891.684 502.691C891.009 502.534 890.374 502.236 889.822 501.817C888.254 500.744 886.956 499.323 886.031 497.664C885.892 497.423 885.757 497.174 885.631 496.923L877.38 478.197C873.556 477.362 869.83 476.128 866.263 474.516L852.46 481.826C850.099 482.961 847.637 483.873 845.106 484.549C842.679 485.07 841.09 484.728 840.108 483.471L824.855 463.949C824.764 463.839 824.681 463.723 824.607 463.601ZM905.941 417.54C903.345 413.057 899.077 409.785 894.073 408.444C889.069 407.104 883.738 407.803 879.248 410.388C874.765 412.983 871.493 417.251 870.153 422.255C868.812 427.259 869.511 432.591 872.096 437.08C874.691 441.564 878.959 444.835 883.963 446.176C888.967 447.517 894.299 446.818 898.789 444.233C903.272 441.638 906.543 437.37 907.884 432.365C909.225 427.361 908.526 422.03 905.941 417.54Z" fill="#B2C2F6"/>
<path d="M766.315 375.711C765.917 374.866 765.861 373.9 766.159 373.015C766.506 371.807 767.122 370.694 767.961 369.759L774.401 363.142C773.254 360.186 772.511 357.088 772.192 353.934L765.356 351.018C763.173 349.891 760.701 348.62 759.853 347.152C759.557 346.678 759.462 346.105 759.587 345.56L763.139 330.177C763.29 329.724 763.539 329.311 763.868 328.966C764.197 328.621 764.598 328.352 765.042 328.18C766.243 327.63 767.559 327.381 768.878 327.451L779.58 328.43C782.284 324.982 785.607 322.067 789.378 319.835L789.392 311.253C789.46 309.585 789.684 307.926 790.061 306.3C790.494 304.777 791.162 303.987 792.164 303.81L807.709 301.07C808.472 300.987 809.236 301.209 809.836 301.688C810.656 302.288 811.336 303.059 811.827 303.948C812.075 304.378 812.287 304.826 812.462 305.29L815.848 315.851C819.606 316.758 823.191 318.273 826.462 320.335L833.915 317.636C835.506 317.128 837.142 316.77 838.8 316.567C840.378 316.453 841.35 316.811 841.858 317.692L849.752 331.364C849.95 331.798 850.049 332.27 850.044 332.747C850.039 333.224 849.928 333.693 849.721 334.123C849.218 335.345 848.425 336.426 847.412 337.275L841.898 341.547C842.882 345.381 843.213 349.353 842.878 353.297L848.53 356.315C850.491 357.553 852.713 358.956 853.545 360.397C853.722 360.669 853.837 360.976 853.881 361.297C853.925 361.618 853.898 361.945 853.801 362.254L848.923 377.269C848.732 377.706 848.447 378.096 848.089 378.41C847.731 378.724 847.308 378.956 846.85 379.089C845.605 379.532 844.271 379.667 842.963 379.481L830.646 377.261C829.384 378.342 828.049 379.333 826.65 380.229L827.517 388.608C827.624 390.275 827.576 391.948 827.371 393.605C827.1 395.164 826.518 396.02 825.54 396.301L810.364 400.652C809.93 400.736 809.483 400.728 809.053 400.628C808.623 400.528 808.218 400.338 807.866 400.071C806.867 399.388 806.039 398.482 805.45 397.424C805.36 397.269 805.275 397.11 805.193 396.95L799.935 385.016C797.498 384.484 795.124 383.698 792.85 382.671L784.056 387.334C782.551 388.057 780.981 388.639 779.368 389.07C777.821 389.401 776.809 389.184 776.183 388.382L766.463 375.941C766.408 375.868 766.359 375.791 766.315 375.711ZM818.15 346.356C816.495 343.499 813.776 341.414 810.587 340.56C807.397 339.705 804 340.15 801.139 341.798C798.281 343.452 796.197 346.172 795.342 349.361C794.488 352.55 794.933 355.948 796.58 358.809C798.234 361.666 800.954 363.751 804.143 364.606C807.333 365.46 810.731 365.015 813.592 363.368C816.449 361.714 818.534 358.993 819.388 355.804C820.243 352.615 819.797 349.217 818.15 346.356Z" fill="#5477E9"/>
<path d="M270.511 629.04C269.168 628.927 267.919 628.299 267.027 627.288C265.768 625.982 264.822 624.408 264.258 622.684L260.633 609.857C256.108 609.157 251.698 607.85 247.522 605.971L238.943 612.414C235.958 614.331 232.578 616.503 230.133 616.503C229.326 616.53 228.541 616.237 227.951 615.687L211.28 600.141C210.823 599.625 210.486 599.016 210.292 598.355C210.098 597.695 210.052 597 210.157 596.319C210.336 594.42 210.974 592.593 212.015 590.994L220.963 578.319C218.604 572.449 217.358 566.191 217.29 559.865L206.57 553.652C204.533 552.363 202.621 550.887 200.859 549.241C199.268 547.602 198.761 546.196 199.264 544.816L207.059 523.397C207.506 522.383 208.336 521.587 209.367 521.182C210.709 520.59 212.164 520.297 213.63 520.324C214.346 520.327 215.061 520.387 215.767 520.504L231.416 523.894C235.263 519.85 239.744 516.461 244.683 513.86L246.691 502.588C247.206 500.233 247.939 497.93 248.883 495.712C249.88 493.657 251.028 492.699 252.496 492.699H275.289C275.975 492.765 276.637 492.981 277.23 493.332C277.822 493.683 278.33 494.16 278.717 494.729C279.881 496.241 280.661 498.012 280.99 499.892L282.352 509.87C287.855 511.407 293.061 513.861 297.749 517.127L305.602 512.238C308.569 510.68 311.925 508.911 314.328 508.911C314.795 508.886 315.262 508.965 315.695 509.141C316.129 509.318 316.518 509.588 316.834 509.932L332.087 526.87C332.496 527.424 332.779 528.06 332.915 528.735C333.051 529.41 333.036 530.107 332.872 530.775C332.528 532.652 331.734 534.417 330.557 535.918L318.889 549.715C319.331 552.073 319.607 554.458 319.716 556.854L330.819 561.819C332.98 562.888 335.037 564.157 336.961 565.609C338.714 567.073 339.365 568.419 339.01 569.843L333.495 591.957C333.288 592.56 332.955 593.112 332.519 593.578C332.084 594.044 331.555 594.413 330.967 594.66C329.391 595.416 327.661 595.797 325.914 595.771C325.658 595.771 325.397 595.764 325.139 595.748L306.422 593.708C303.997 596.37 301.299 598.772 298.374 600.872L297.849 615.234C297.668 617.638 297.262 620.02 296.636 622.348C295.935 624.522 294.928 625.629 293.478 625.834L270.906 629.006C270.776 629.027 270.644 629.038 270.511 629.04ZM271.226 543.041C266.46 543.047 261.89 544.943 258.519 548.313C255.149 551.684 253.253 556.253 253.247 561.02C253.253 565.787 255.149 570.356 258.519 573.727C261.89 577.097 266.46 578.993 271.226 578.999C275.993 578.993 280.562 577.097 283.933 573.727C287.303 570.356 289.199 565.787 289.205 561.02C289.2 556.253 287.304 551.683 283.934 548.312C280.563 544.942 275.993 543.046 271.226 543.04V543.041Z" fill="#829CF1"/>
<path d="M580.479 691.392C593.373 691.392 603.825 680.94 603.825 668.046C603.825 655.153 593.373 644.701 580.479 644.701C567.586 644.701 557.134 655.153 557.134 668.046C557.134 680.94 567.586 691.392 580.479 691.392Z" fill="#2A2B58"/>
<path d="M580.48 712.614C583.997 712.614 586.847 709.764 586.847 706.247C586.847 702.731 583.997 699.88 580.48 699.88C576.964 699.88 574.113 702.731 574.113 706.247C574.113 709.764 576.964 712.614 580.48 712.614Z" fill="#2A2B58"/>
<path d="M806.195 371.634H353.348C336.965 371.634 323.684 384.915 323.684 401.299V637.673C323.684 654.057 336.965 667.338 353.348 667.338H806.195C822.579 667.338 835.86 654.057 835.86 637.673V401.299C835.86 384.915 822.579 371.634 806.195 371.634Z" fill="#2A2B58"/>
<path d="M802.201 378.708H357.343C343.442 378.708 332.173 389.977 332.173 403.878V635.094C332.173 648.995 343.442 660.264 357.343 660.264H802.201C816.103 660.264 827.372 648.995 827.372 635.094V403.878C827.372 389.977 816.103 378.708 802.201 378.708Z" fill="#829CF1" fill-opacity="0.18"/>
<g filter="url(#filter0_d_2936_16331)">
<path d="M568.751 573.984C568.751 573.984 477.017 581.02 470.192 557.938C464.454 538.505 482.178 501.461 508.78 482.578L493.776 469.95C491.565 471.044 489.043 471.338 486.64 470.782C484.236 470.226 482.1 468.855 480.594 466.9C479.088 464.946 478.306 462.531 478.381 460.065C478.456 457.599 479.383 455.235 481.005 453.376C482.627 451.517 484.843 450.278 487.276 449.869C489.709 449.46 492.208 449.907 494.348 451.134C496.489 452.36 498.138 454.291 499.015 456.597C499.892 458.903 499.942 461.441 499.158 463.78L516.058 478.004C518.809 476.489 521.67 475.181 524.617 474.093C552.994 463.68 614.679 461.914 645.696 473.443L657.092 460.296C655.913 458.146 655.516 455.653 655.967 453.243C656.418 450.833 657.689 448.653 659.566 447.074C661.442 445.495 663.807 444.615 666.259 444.583C668.711 444.551 671.099 445.369 673.016 446.898C674.933 448.427 676.261 450.572 676.775 452.97C677.289 455.368 676.957 457.87 675.835 460.05C674.714 462.231 672.871 463.955 670.622 464.931C668.372 465.907 665.854 466.074 663.495 465.403L653.46 476.981C656.58 478.627 659.326 480.901 661.526 483.658C673.266 499.047 690.721 554.115 667.697 566.94C649.799 574.635 606.072 573.983 601.148 573.983C594 573.983 573.516 588.276 572 593L568.751 573.984Z" fill="white"/>
</g>
<path d="M563.343 544.856C570.348 544.856 576.028 539.177 576.028 532.171C576.028 525.166 570.348 519.486 563.343 519.486C556.337 519.486 550.658 525.166 550.658 532.171C550.658 539.177 556.337 544.856 563.343 544.856Z" fill="#EE0033"/>
<path d="M645.794 544.856C652.8 544.856 658.479 539.177 658.479 532.171C658.479 525.166 652.8 519.486 645.794 519.486C638.788 519.486 633.109 525.166 633.109 532.171C633.109 539.177 638.788 544.856 645.794 544.856Z" fill="#EE0033"/>
<path d="M341.662 721.104H817.882C822.65 721.104 827.223 722.998 830.594 726.369C833.966 729.741 835.86 734.314 835.86 739.082V739.497H323.684V739.082C323.684 734.314 325.578 729.741 328.949 726.369C332.321 722.998 336.894 721.104 341.662 721.104V721.104Z" fill="#2A2B58"/>
<g filter="url(#filter1_d_2936_16331)">
<path d="M555.895 309.254C591.865 309.254 621.024 280.095 621.024 244.126C621.024 208.156 591.865 178.997 555.895 178.997C519.926 178.997 490.767 208.156 490.767 244.126C490.767 280.095 519.926 309.254 555.895 309.254Z" fill="white"/>
</g>
<path d="M584.913 218.319H515.271V269.906H584.913V218.319Z" fill="#5477E9"/>
<path d="M587.233 218.384V269.906H592.28V263.606H589.656V258.566H593.29V248.228H589.656V241.675H595.51V230.34H589.656V226.055H595.51L596.52 218.387L587.233 218.384Z" fill="#5477E9"/>
<g filter="url(#filter2_d_2936_16331)">
<path d="M550.086 258.955C558.278 258.955 564.918 252.315 564.918 244.124C564.918 235.932 558.278 229.292 550.086 229.292C541.895 229.292 535.255 235.932 535.255 244.124C535.255 252.315 541.895 258.955 550.086 258.955Z" fill="white"/>
</g>
<path d="M548.693 249.448L542.256 244.425C541.964 244.192 541.773 243.856 541.723 243.485C541.673 243.115 541.767 242.74 541.986 242.438C542.091 242.29 542.225 242.165 542.38 242.07C542.534 241.975 542.707 241.913 542.886 241.887C543.065 241.861 543.248 241.872 543.424 241.919C543.599 241.965 543.763 242.047 543.905 242.159L549.101 246.212L555.781 239.05C555.921 238.898 556.091 238.775 556.28 238.69C556.468 238.605 556.673 238.559 556.88 238.555C557.087 238.551 557.293 238.59 557.485 238.668C557.677 238.746 557.851 238.862 557.996 239.01C558.295 239.314 558.466 239.722 558.474 240.148C558.481 240.575 558.324 240.988 558.035 241.302L550.726 249.134C550.627 249.241 550.512 249.334 550.387 249.41C550.152 249.611 549.855 249.725 549.546 249.732C549.237 249.738 548.935 249.638 548.692 249.447L548.693 249.448Z" fill="#2252F1"/>
<g filter="url(#filter3_d_2936_16331)">
<path d="M640.081 407.238H621.923C617.87 407.238 613.983 405.628 611.117 402.762C608.251 399.896 606.641 396.009 606.641 391.956V350.605C606.641 346.552 608.251 342.665 611.117 339.799C613.983 336.933 617.87 335.323 621.923 335.323H829.577C833.63 335.323 837.516 336.933 840.382 339.799C843.248 342.665 844.858 346.552 844.858 350.605V391.956C844.858 396.009 843.248 399.896 840.382 402.762C837.516 405.628 833.63 407.238 829.577 407.238H665.251L640.081 429.059V407.238Z" fill="white"/>
</g>
<path d="M822.835 347.911H621.473C618.743 347.911 616.529 350.125 616.529 352.855C616.529 355.586 618.743 357.799 621.473 357.799H822.835C825.565 357.799 827.779 355.586 827.779 352.855C827.779 350.125 825.565 347.911 822.835 347.911Z" fill="#EE0033" fill-opacity="0.1"/>
<path d="M726.649 368.587H621.473C618.743 368.587 616.529 370.8 616.529 373.531C616.529 376.262 618.743 378.475 621.473 378.475H726.649C729.379 378.475 731.593 376.262 731.593 373.531C731.593 370.8 729.379 368.587 726.649 368.587Z" fill="#EE0033" fill-opacity="0.1"/>
<path d="M739.234 389.262H621.473C618.743 389.262 616.529 391.475 616.529 394.206C616.529 396.936 618.743 399.15 621.473 399.15H739.234C741.964 399.15 744.178 396.936 744.178 394.206C744.178 391.475 741.964 389.262 739.234 389.262Z" fill="#EE0033" fill-opacity="0.1"/>
<g filter="url(#filter4_d_2936_16331)">
<path d="M842.339 505.302H867.509V527.124L842.339 505.302ZM715.131 505.302C711.078 505.302 707.191 503.692 704.325 500.826C701.459 497.961 699.849 494.074 699.849 490.021V448.67C699.849 444.617 701.459 440.73 704.325 437.864C707.191 434.998 711.078 433.388 715.131 433.388H922.784C926.837 433.388 930.724 434.998 933.59 437.864C936.456 440.73 938.066 444.617 938.066 448.67V490.021C938.066 494.074 936.456 497.961 933.59 500.826C930.724 503.692 926.837 505.302 922.784 505.302H715.131Z" fill="white"/>
</g>
<path d="M916.048 445.976H714.686C711.956 445.976 709.742 448.189 709.742 450.92C709.742 453.65 711.956 455.864 714.686 455.864H916.048C918.778 455.864 920.992 453.65 920.992 450.92C920.992 448.189 918.778 445.976 916.048 445.976Z" fill="#E2EAFF"/>
<path d="M819.862 466.65H714.686C711.956 466.65 709.742 468.864 709.742 471.595C709.742 474.325 711.956 476.539 714.686 476.539H819.862C822.592 476.539 824.806 474.325 824.806 471.595C824.806 468.864 822.592 466.65 819.862 466.65Z" fill="#E2EAFF"/>
<path d="M832.447 487.326H714.686C711.956 487.326 709.742 489.54 709.742 492.27C709.742 495.001 711.956 497.214 714.686 497.214H832.447C835.177 497.214 837.391 495.001 837.391 492.27C837.391 489.54 835.177 487.326 832.447 487.326Z" fill="#E2EAFF"/>
<path d="M899.863 542.922C899.088 547.557 891.739 554.642 891.739 554.642C891.739 554.642 883.061 560.043 876.026 554.971C868.991 549.899 865.558 547.664 861.942 542.749C858.24 537.719 860.56 537.926 860.56 537.926C861.078 534.998 876.667 543.748 876.871 541.251C876.941 540.368 873.463 538.743 872.327 537.301C871.191 535.858 872.232 535.329 873.369 534.874C874.505 534.419 874.155 535.002 876.872 535.482L892.263 540.601C899.602 541.898 900.638 538.287 899.863 542.922Z" fill="#F1B7B7"/>
<path d="M948.015 755.168C951.651 753.375 951.982 753.758 956.04 751.298C959.879 748.867 963.565 746.204 967.077 743.323L973.888 737.784C973.888 737.784 991.426 731.032 992.277 734.715L995.082 746.866C995.618 749.19 995.21 751.632 993.946 753.655C992.683 755.678 990.668 757.116 988.344 757.653L956.041 764.339L948.014 764.34C943.288 764.482 939.036 759.594 948.015 755.168Z" fill="#2A2B58"/>
<path d="M842.806 739.67C852.789 738.929 866.611 735.025 866.611 735.025L875.001 732.44C875.001 732.44 893.792 732.75 893.2 736.483L891.25 748.8C890.877 751.156 889.583 753.267 887.654 754.669C885.724 756.071 883.317 756.65 880.961 756.277L842.165 751.031C837.261 750.254 832.822 740.41 842.806 739.67Z" fill="#2A2B58"/>
<path d="M925.218 538.196C925.218 538.196 946.332 546.277 952.187 555.025C958.042 563.774 961.619 581.692 960.426 586.142L926.057 664.847L893.197 735.52L875.775 732.803L898.665 647.917L925.218 538.196Z" fill="#5655D2"/>
<g filter="url(#filter5_d_2936_16331)">
<path d="M921.356 534.069C921.356 534.069 942.193 524.216 951.394 530.046C960.595 535.875 963.618 540.564 965.941 554.561C968.263 568.557 976.451 647.609 976.451 647.609L992.513 733.699L974.094 738.951L924.297 573.4L921.356 534.069Z" fill="#5655D2"/>
</g>
<path d="M881.539 460.593L881.615 460.533C886.702 456.559 889.863 463.842 894.589 465.144C899.314 466.445 900.518 465.74 900.518 465.74C903.576 469.654 901.931 476.05 896.846 480.022L896.77 480.082C891.919 483.872 882.362 482.775 882.218 482.591C882.612 480.184 882.83 477.752 882.871 475.313C883.104 469.946 876.452 464.567 881.539 460.593Z" fill="#FFC8C8"/>
<path d="M881.578 479.114C881.399 471.891 890.724 462.964 900.435 463.468C910.147 463.972 916.309 464.682 922.923 474.493C929.536 484.304 940.739 498.584 940.739 498.584C943.798 502.498 953.352 525.158 953.352 531.492C953.352 531.492 926.924 551.213 921.853 553.638C918.657 551.653 910.071 528.848 907.014 524.934C907.014 524.934 887.516 508.796 884.547 498.585C881.578 488.373 881.756 486.337 881.578 479.114Z" fill="#FE7062"/>
<g filter="url(#filter6_d_2936_16331)">
<path d="M903.354 547.063C902.598 551.674 894.224 556.278 894.224 556.278C894.224 556.278 884.481 561.351 877.471 556.325C870.46 551.299 869.258 551.883 865.646 547.008C861.95 542.017 864.257 542.216 864.257 542.216C864.763 539.302 880.291 547.955 880.486 545.472C880.571 544.362 877.107 544.31 876.378 542.562C875.556 540.596 877.567 537.105 880.274 537.575L898.338 540.299C905.64 541.566 904.11 542.452 903.354 547.063Z" fill="#FFC8C8"/>
</g>
<path d="M881.468 545.649L881.469 545.648C882.1 544.295 881.514 542.687 880.161 542.056L852.649 529.227C851.296 528.596 849.688 529.181 849.057 530.534L849.057 530.535C848.426 531.888 849.011 533.496 850.364 534.127L877.876 546.956C879.229 547.587 880.837 547.002 881.468 545.649Z" fill="black"/>
<g filter="url(#filter7_d_2936_16331)">
<path d="M854.285 440.928C862.989 434.588 875.362 436.747 881.92 445.751C888.478 454.754 886.738 467.193 878.034 473.533C869.33 479.873 858.159 474.451 851.601 465.448C845.043 456.444 845.58 447.269 854.285 440.928Z" fill="#FFC8C8"/>
</g>
<path d="M842.71 447.403C842.71 442.784 847.073 436.308 851.532 433.367C855.193 430.059 859.404 427.417 863.975 425.559C865.828 425.058 867.789 425.128 869.601 425.759C875.066 423.812 885.736 431.371 889.179 435.296C893.052 439.711 892.595 453.787 888.127 458.879C887.791 459.261 886.949 460.041 886.949 460.041C883.496 459.053 880.369 457.159 877.893 454.558C876.445 452.794 875.134 450.922 873.971 448.959C870.49 451.551 866.623 453.581 862.512 454.975C861.139 455.296 859.706 455.262 858.349 454.876C856.933 462.374 854.483 470.18 851.196 470.18C845.797 470.177 842.71 453.556 842.71 447.403Z" fill="#5655D2"/>
<path d="M879.412 460.388C876.305 459.727 866.453 453.743 867.81 447.36C869.167 440.978 874.027 443.412 876.927 446.669C879.828 449.926 882.286 460.999 879.412 460.388Z" fill="#FFC8C8"/>
<g filter="url(#filter8_d_2936_16331)">
<path d="M889.729 539.046L913.506 514.581L895.555 491.605C893.352 488.785 892.359 485.206 892.796 481.654C893.232 478.103 895.061 474.87 897.88 472.667L898.179 472.434C900.998 470.231 904.578 469.239 908.129 469.675C911.681 470.111 914.914 471.94 917.117 474.76L938.175 501.714C944.024 509.972 945.177 513.555 944.032 515.905C944.175 519.53 942.953 523.078 940.608 525.847L900.859 552.374L889.729 539.046Z" fill="#FE7062"/>
</g>
<g filter="url(#filter9_d_2936_16331)">
<path d="M433.692 309.258H279.076C270.636 309.258 263.794 316.1 263.794 324.54V418.029C263.794 426.469 270.636 433.311 279.076 433.311H433.692C442.132 433.311 448.974 426.469 448.974 418.029V324.54C448.974 316.1 442.132 309.258 433.692 309.258Z" fill="white"/>
</g>
<path d="M423.804 334.878C423.804 331.154 420.786 328.136 417.062 328.136C413.339 328.136 410.32 331.154 410.32 334.878V407.691C410.32 411.415 413.339 414.433 417.062 414.433C420.786 414.433 423.804 411.415 423.804 407.691V334.878Z" fill="#F0F4FF"/>
<path d="M294.358 334.878C294.358 331.154 291.339 328.136 287.616 328.136C283.892 328.136 280.874 331.154 280.874 334.878V407.691C280.874 411.415 283.892 414.433 287.616 414.433C291.339 414.433 294.358 411.415 294.358 407.691V334.878Z" fill="#F0F4FF"/>
<path d="M333.911 334.878C333.911 331.154 330.892 328.136 327.169 328.136C323.445 328.136 320.427 331.154 320.427 334.878V407.691C320.427 411.415 323.445 414.433 327.169 414.433C330.892 414.433 333.911 411.415 333.911 407.691V334.878Z" fill="#F0F4FF"/>
<path d="M378.857 334.878C378.857 331.154 375.839 328.136 372.115 328.136C368.392 328.136 365.373 331.154 365.373 334.878V407.691C365.373 411.415 368.392 414.433 372.115 414.433C375.839 414.433 378.857 411.415 378.857 407.691V334.878Z" fill="#F0F4FF"/>
<path d="M423.804 356.452C423.804 352.728 420.786 349.71 417.062 349.71C413.339 349.71 410.32 352.728 410.32 356.452V407.691C410.32 411.415 413.339 414.433 417.062 414.433C420.786 414.433 423.804 411.415 423.804 407.691V356.452Z" fill="#5477E9"/>
<path d="M294.358 388.813C294.358 385.09 291.339 382.071 287.616 382.071C283.892 382.071 280.874 385.09 280.874 388.813V407.691C280.874 411.414 283.892 414.433 287.616 414.433C291.339 414.433 294.358 411.414 294.358 407.691V388.813Z" fill="#5477E9"/>
<path d="M333.911 360.048C333.911 356.324 330.892 353.306 327.169 353.306C323.445 353.306 320.427 356.324 320.427 360.048V407.691C320.427 411.415 323.445 414.433 327.169 414.433C330.892 414.433 333.911 411.415 333.911 407.691V360.048Z" fill="#5477E9"/>
<path d="M378.857 370.835C378.857 367.111 375.839 364.093 372.115 364.093C368.392 364.093 365.373 367.111 365.373 370.835V407.691C365.373 411.415 368.392 414.433 372.115 414.433C375.839 414.433 378.857 411.415 378.857 407.691V370.835Z" fill="#5477E9"/>
<g filter="url(#filter10_d_2936_16331)">
<path d="M274.581 309.258H438.187C441.048 309.258 443.792 310.394 445.815 312.417C447.838 314.44 448.974 317.184 448.974 320.045H263.794C263.794 317.184 264.93 314.44 266.953 312.417C268.976 310.394 271.72 309.258 274.581 309.258V309.258Z" fill="#5477E9"/>
</g>
<path d="M351.344 705.688C400.494 705.688 440.338 665.642 440.338 616.244C440.338 566.845 400.494 526.8 351.344 526.8C302.193 526.8 262.349 566.845 262.349 616.244C262.349 665.642 302.193 705.688 351.344 705.688Z" fill="#2A2B58"/>
<path d="M351.344 698.496C396.522 698.496 433.147 661.67 433.147 616.244C433.147 570.817 396.522 533.991 351.344 533.991C306.165 533.991 269.541 570.817 269.541 616.244C269.541 661.67 306.165 698.496 351.344 698.496Z" fill="#F56685"/>
<path d="M349.369 613.269L349.444 613.268C354.461 613.18 353.016 619.18 355.341 622.198C357.665 625.217 358.742 625.342 358.742 625.342C358.81 629.207 354.797 632.404 349.78 632.492L349.704 632.493C344.923 632.576 339.502 627.424 339.499 627.243C340.869 625.933 342.143 624.525 343.309 623.031C345.965 619.807 344.351 613.356 349.369 613.269Z" fill="#FFC8C8"/>
<g filter="url(#filter11_d_2936_16331)">
<path d="M364.249 606.097C363.376 614.404 355.702 620.407 347.11 619.504C338.518 618.602 332.258 611.134 333.131 602.826C334.004 594.518 342.932 590.905 351.525 591.808C360.118 592.711 365.122 597.786 364.249 606.097Z" fill="#FFC8C8"/>
</g>
<path d="M329.917 596.825C329.625 588.802 338.884 578.84 345.692 578.358C345.801 578.316 345.906 578.278 346.007 578.243C347.45 577.853 348.978 577.909 350.39 578.402C354.636 576.878 362.937 582.759 365.615 585.812C368.627 589.243 368.27 600.183 364.798 604.138C364.537 604.435 363.883 605.042 363.883 605.042C363.067 602.658 361.79 600.459 360.124 598.569C359.225 597.547 357.572 595.783 355.781 593.694C350.927 597.7 340.756 601.891 337.779 602.737C337.461 602.831 337.13 602.876 336.798 602.871C336.184 604.768 335.636 606.026 335.636 606.026C335.636 606.026 330.218 605.103 329.917 596.825Z" fill="#2D2D57"/>
<path d="M334.387 595.118H328.87C328.868 592.509 329.392 589.926 330.409 587.523C331.427 585.121 332.918 582.948 334.794 581.134C338.629 577.419 343.758 575.342 349.096 575.342C354.435 575.342 359.564 577.419 363.398 581.134C365.274 582.947 366.766 585.121 367.783 587.523C368.801 589.926 369.325 592.509 369.322 595.118H363.806C363.806 593.221 363.424 591.343 362.683 589.597C361.941 587.85 360.856 586.271 359.491 584.953C356.715 582.236 352.981 580.721 349.096 580.735C345.24 580.696 341.525 582.189 338.767 584.885C336.01 587.582 334.434 591.262 334.387 595.118Z" fill="#0D0E17"/>
<g filter="url(#filter12_d_2936_16331)">
<path d="M349.527 627.061L349.735 627.017C351.955 626.658 352.872 623.62 356.834 623.568C361.505 625.516 369.757 628.076 370.354 631.767L365.177 670.636L337.317 671.902L328.962 635.626C328.352 631.856 336.129 627.732 341.616 624.808C341.623 624.807 342.501 624.477 342.724 624.431C345.799 623.804 347.386 627.407 349.527 627.061Z" fill="white"/>
</g>
<path d="M347.147 628.471H352.039L351.471 632.663H347.777L347.147 628.471Z" fill="#0D0E17"/>
<g filter="url(#filter13_d_2936_16331)">
<path d="M331.369 594.235H333.96V610.306H331.369C329.462 610.306 327.633 609.549 326.284 608.2C324.936 606.851 324.178 605.022 324.178 603.115V601.427C324.178 599.52 324.936 597.69 326.284 596.342C327.633 594.993 329.462 594.235 331.369 594.235V594.235Z" fill="#0D0E17"/>
</g>
<g filter="url(#filter14_d_2936_16331)">
<path d="M341.843 620.929L349.58 627.095L346.734 634.234L340.864 626.799L341.843 620.929Z" fill="white"/>
</g>
<g filter="url(#filter15_d_2936_16331)">
<path d="M363.309 594.235H365.899C367.807 594.235 369.636 594.993 370.984 596.342C372.333 597.69 373.091 599.52 373.091 601.427V603.115C373.091 605.022 372.333 606.851 370.984 608.2C369.636 609.549 367.807 610.306 365.899 610.306H363.309V594.235Z" fill="#0D0E17"/>
</g>
<g filter="url(#filter16_d_2936_16331)">
<path d="M357.104 620.929L349.591 627.085L352.213 634.234L358.082 626.799L357.104 620.929Z" fill="white"/>
</g>
<path d="M347.846 633.362H351.34V650.362L346.38 653.788L347.846 633.362Z" fill="#0B0C13"/>
<path d="M351.34 656.712L348.733 660.96L345.929 658.563L346.378 654.955L351.34 651.529V656.712Z" fill="#0B0C13"/>
<g filter="url(#filter17_d_2936_16331)">
<path d="M356.908 672.026L372.218 656.45L368.001 648.007C368.001 648.007 369.13 639.917 369.506 635.503C369.881 631.089 369.506 630.336 369.506 630.336L387.139 648.994C390.791 654.089 391.509 656.299 390.794 657.749C390.882 659.991 390.117 662.183 388.655 663.885L363.853 680.246L356.908 672.026Z" fill="white"/>
</g>
<g filter="url(#filter18_d_2936_16331)">
<path d="M331.357 636.496C331.733 640.913 332.095 649.446 332.095 649.446L328.544 657.34L343.954 673.019L337.008 681.242L312.207 664.882C310.744 663.18 309.98 660.988 310.067 658.745C309.353 657.295 310.067 655.086 313.722 649.991L330.724 631.84C330.724 631.84 330.981 632.079 331.357 636.496Z" fill="white"/>
</g>
<path d="M330.265 600.009C330.414 602.519 331.142 604.96 332.392 607.141C333.641 609.322 335.379 611.185 337.469 612.583" stroke="#0D0E17"/>
<path d="M341.164 612.147L338.485 611.118C337.67 610.805 336.756 611.213 336.443 612.028C336.13 612.843 336.537 613.758 337.352 614.071L340.031 615.099C340.846 615.412 341.761 615.005 342.074 614.19C342.387 613.374 341.98 612.46 341.164 612.147Z" fill="#0D0E17"/>
<path d="M376.514 687.709H323.477C321.987 687.709 320.78 688.916 320.78 690.406C320.78 691.895 321.987 693.103 323.477 693.103H376.514C378.003 693.103 379.211 691.895 379.211 690.406C379.211 688.916 378.003 687.709 376.514 687.709Z" fill="#2A2B58"/>
<path d="M309.646 687.026L306.621 646.656L311.496 643.232H387.608L393.087 649.076L392.033 685.558L420.481 619.676L428.31 599.796L351.999 546.579L312.277 557.449C312.277 557.449 271.188 611.87 271.188 613.884C271.188 615.898 280.97 639.205 280.97 639.809C280.97 640.413 309.646 687.026 309.646 687.026Z" fill="url(#paint0_linear_2936_16331)"/>
<path d="M386.402 640.965H313.588C310.113 640.965 307.296 643.782 307.296 647.257V681.417C307.296 684.892 310.113 687.709 313.588 687.709H386.402C389.877 687.709 392.695 684.892 392.695 681.417V647.257C392.695 643.782 389.877 640.965 386.402 640.965Z" fill="#2A2B58"/>
<g filter="url(#filter19_d_2936_16331)">
<path d="M382.701 626.977H380.268C378.599 626.977 376.998 626.314 375.818 625.134C374.638 623.954 373.975 622.354 373.975 620.685V614.506C373.975 612.838 374.638 611.237 375.818 610.057C376.998 608.877 378.599 608.214 380.268 608.214H422.847C424.516 608.214 426.116 608.877 427.296 610.057C428.476 611.237 429.139 612.838 429.139 614.506V620.684C429.139 622.353 428.476 623.953 427.296 625.133C426.116 626.313 424.516 626.976 422.847 626.976H389.268L382.701 632.67V626.977Z" fill="white"/>
</g>
<path d="M424.874 612.451H380.048C379.663 612.451 379.35 612.764 379.35 613.15V613.151C379.35 613.536 379.663 613.849 380.048 613.849H424.874C425.259 613.849 425.572 613.536 425.572 613.151V613.15C425.572 612.764 425.259 612.451 424.874 612.451Z" fill="#E2EAFF"/>
<path d="M408.672 616.67H380.048C379.663 616.67 379.35 616.983 379.35 617.368V617.369C379.35 617.755 379.663 618.068 380.048 618.068H408.672C409.058 618.068 409.371 617.755 409.371 617.369V617.368C409.371 616.983 409.058 616.67 408.672 616.67Z" fill="#E2EAFF"/>
<path d="M411.955 620.889H380.048C379.663 620.889 379.35 621.201 379.35 621.587V621.588C379.35 621.974 379.663 622.287 380.048 622.287H411.955C412.341 622.287 412.654 621.974 412.654 621.588V621.587C412.654 621.201 412.341 620.889 411.955 620.889Z" fill="#E2EAFF"/>
<g filter="url(#filter20_d_2936_16331)">
<path d="M323.285 573.613C324.239 573.613 325.154 573.992 325.828 574.666C326.502 575.34 326.881 576.255 326.881 577.209V581.793C326.881 582.747 326.502 583.661 325.828 584.336C325.154 585.01 324.239 585.389 323.285 585.389H308.154C307.2 585.389 306.285 585.01 305.611 584.336C304.937 583.661 304.558 582.747 304.558 581.793V577.209C304.558 576.255 304.937 575.34 305.611 574.666C306.285 573.992 307.2 573.613 308.154 573.613H323.285ZM323.124 585.389V589.045L317.179 585.389H323.124Z" fill="white"/>
</g>
<g filter="url(#filter21_d_2936_16331)">
<path d="M272.687 622.084C281.375 622.084 288.418 614.84 288.418 605.903C288.418 596.967 281.375 589.723 272.687 589.723C263.999 589.723 256.956 596.967 256.956 605.903C256.956 614.84 263.999 622.084 272.687 622.084Z" fill="white"/>
</g>
<path d="M272.564 597.81C271.129 597.811 269.754 598.381 268.739 599.395C267.725 600.41 267.154 601.786 267.153 603.22V605.827C267.124 606.477 266.949 607.112 266.639 607.684L265.602 609.406C265.447 609.634 265.349 609.895 265.315 610.168C265.282 610.441 265.314 610.719 265.409 610.977C265.504 611.236 265.66 611.467 265.863 611.654C266.065 611.84 266.31 611.975 266.575 612.048C270.458 613.346 274.658 613.346 278.541 612.048C278.797 611.962 279.031 611.82 279.225 611.631C279.419 611.443 279.568 611.214 279.661 610.96C279.755 610.707 279.79 610.435 279.765 610.166C279.739 609.897 279.654 609.637 279.515 609.406L278.477 607.683C278.175 607.109 278.002 606.475 277.972 605.826V603.219C277.968 601.786 277.397 600.413 276.383 599.399C275.37 598.386 273.997 597.814 272.564 597.81V597.81Z" stroke="#5655D2" stroke-width="1.5" stroke-miterlimit="10" stroke-linecap="round"/>
<path d="M274.232 598.068C273.141 597.757 271.986 597.757 270.896 598.068C271.027 597.733 271.257 597.445 271.554 597.243C271.852 597.04 272.204 596.932 272.564 596.932C272.923 596.932 273.275 597.04 273.573 597.243C273.87 597.445 274.1 597.733 274.232 598.068V598.068Z" stroke="#5655D2" stroke-width="1.5" stroke-miterlimit="10" stroke-linecap="round" stroke-linejoin="round"/>
<path opacity="0.4" d="M275.27 612.372C275.27 613.09 274.985 613.778 274.477 614.285C273.97 614.792 273.282 615.077 272.564 615.077C271.847 615.077 271.159 614.792 270.651 614.285C270.144 613.778 269.859 613.09 269.859 612.372" stroke="#5554D2" stroke-width="1.5" stroke-miterlimit="10"/>
<path d="M606.5 538L615.593 548.5H597.407L606.5 538Z" fill="#EE0033"/>
<defs>
<filter id="filter0_d_2936_16331" x="463.111" y="441.582" width="221.869" height="160.418" filterUnits="userSpaceOnUse" color-interpolation-filters="sRGB">
<feFlood flood-opacity="0" result="BackgroundImageFix"/>
<feColorMatrix in="SourceAlpha" type="matrix" values="0 0 0 0 0 0 0 0 0 0 0 0 0 0 0 0 0 0 127 0" result="hardAlpha"/>
<feOffset dy="3"/>
<feGaussianBlur stdDeviation="3"/>
<feColorMatrix type="matrix" values="0 0 0 0 0 0 0 0 0 0 0 0 0 0 0 0 0 0 0.161 0"/>
<feBlend mode="normal" in2="BackgroundImageFix" result="effect1_dropShadow_2936_16331"/>
<feBlend mode="normal" in="SourceGraphic" in2="effect1_dropShadow_2936_16331" result="shape"/>
</filter>
<filter id="filter1_d_2936_16331" x="466.767" y="157.997" width="178.257" height="178.257" filterUnits="userSpaceOnUse" color-interpolation-filters="sRGB">
<feFlood flood-opacity="0" result="BackgroundImageFix"/>
<feColorMatrix in="SourceAlpha" type="matrix" values="0 0 0 0 0 0 0 0 0 0 0 0 0 0 0 0 0 0 127 0" result="hardAlpha"/>
<feOffset dy="3"/>
<feGaussianBlur stdDeviation="12"/>
<feColorMatrix type="matrix" values="0 0 0 0 0 0 0 0 0 0 0 0 0 0 0 0 0 0 0.161 0"/>
<feBlend mode="normal" in2="BackgroundImageFix" result="effect1_dropShadow_2936_16331"/>
<feBlend mode="normal" in="SourceGraphic" in2="effect1_dropShadow_2936_16331" result="shape"/>
</filter>
<filter id="filter2_d_2936_16331" x="532.255" y="229.292" width="35.663" height="35.6631" filterUnits="userSpaceOnUse" color-interpolation-filters="sRGB">
<feFlood flood-opacity="0" result="BackgroundImageFix"/>
<feColorMatrix in="SourceAlpha" type="matrix" values="0 0 0 0 0 0 0 0 0 0 0 0 0 0 0 0 0 0 127 0" result="hardAlpha"/>
<feOffset dy="3"/>
<feGaussianBlur stdDeviation="1.5"/>
<feColorMatrix type="matrix" values="0 0 0 0 0.933333 0 0 0 0 0 0 0 0 0 0.2 0 0 0 0.078 0"/>
<feBlend mode="normal" in2="BackgroundImageFix" result="effect1_dropShadow_2936_16331"/>
<feBlend mode="normal" in="SourceGraphic" in2="effect1_dropShadow_2936_16331" result="shape"/>
</filter>
<filter id="filter3_d_2936_16331" x="590.641" y="322.323" width="270.217" height="125.735" filterUnits="userSpaceOnUse" color-interpolation-filters="sRGB">
<feFlood flood-opacity="0" result="BackgroundImageFix"/>
<feColorMatrix in="SourceAlpha" type="matrix" values="0 0 0 0 0 0 0 0 0 0 0 0 0 0 0 0 0 0 127 0" result="hardAlpha"/>
<feOffset dy="3"/>
<feGaussianBlur stdDeviation="8"/>
<feColorMatrix type="matrix" values="0 0 0 0 0.337255 0 0 0 0 0.333333 0 0 0 0 0.823529 0 0 0 0.188 0"/>
<feBlend mode="normal" in2="BackgroundImageFix" result="effect1_dropShadow_2936_16331"/>
<feBlend mode="normal" in="SourceGraphic" in2="effect1_dropShadow_2936_16331" result="shape"/>
</filter>
<filter id="filter4_d_2936_16331" x="683.849" y="420.388" width="270.217" height="125.736" filterUnits="userSpaceOnUse" color-interpolation-filters="sRGB">
<feFlood flood-opacity="0" result="BackgroundImageFix"/>
<feColorMatrix in="SourceAlpha" type="matrix" values="0 0 0 0 0 0 0 0 0 0 0 0 0 0 0 0 0 0 127 0" result="hardAlpha"/>
<feOffset dy="3"/>
<feGaussianBlur stdDeviation="8"/>
<feColorMatrix type="matrix" values="0 0 0 0 0.337255 0 0 0 0 0.333333 0 0 0 0 0.823529 0 0 0 0.188 0"/>
<feBlend mode="normal" in2="BackgroundImageFix" result="effect1_dropShadow_2936_16331"/>
<feBlend mode="normal" in="SourceGraphic" in2="effect1_dropShadow_2936_16331" result="shape"/>
</filter>
<filter id="filter5_d_2936_16331" x="915.356" y="525.201" width="83.157" height="222.75" filterUnits="userSpaceOnUse" color-interpolation-filters="sRGB">
<feFlood flood-opacity="0" result="BackgroundImageFix"/>
<feColorMatrix in="SourceAlpha" type="matrix" values="0 0 0 0 0 0 0 0 0 0 0 0 0 0 0 0 0 0 127 0" result="hardAlpha"/>
<feOffset dy="3"/>
<feGaussianBlur stdDeviation="3"/>
<feColorMatrix type="matrix" values="0 0 0 0 0 0 0 0 0 0 0 0 0 0 0 0 0 0 0.161 0"/>
<feBlend mode="normal" in2="BackgroundImageFix" result="effect1_dropShadow_2936_16331"/>
<feBlend mode="normal" in="SourceGraphic" in2="effect1_dropShadow_2936_16331" result="shape"/>
</filter>
<filter id="filter6_d_2936_16331" x="857.546" y="531.532" width="52.4789" height="33.0146" filterUnits="userSpaceOnUse" color-interpolation-filters="sRGB">
<feFlood flood-opacity="0" result="BackgroundImageFix"/>
<feColorMatrix in="SourceAlpha" type="matrix" values="0 0 0 0 0 0 0 0 0 0 0 0 0 0 0 0 0 0 127 0" result="hardAlpha"/>
<feOffset/>
<feGaussianBlur stdDeviation="3"/>
<feColorMatrix type="matrix" values="0 0 0 0 0 0 0 0 0 0 0 0 0 0 0 0 0 0 0.161 0"/>
<feBlend mode="normal" in2="BackgroundImageFix" result="effect1_dropShadow_2936_16331"/>
<feBlend mode="normal" in="SourceGraphic" in2="effect1_dropShadow_2936_16331" result="shape"/>
</filter>
<filter id="filter7_d_2936_16331" x="845.156" y="436.29" width="42.7382" height="42.9941" filterUnits="userSpaceOnUse" color-interpolation-filters="sRGB">
<feFlood flood-opacity="0" result="BackgroundImageFix"/>
<feColorMatrix in="SourceAlpha" type="matrix" values="0 0 0 0 0 0 0 0 0 0 0 0 0 0 0 0 0 0 127 0" result="hardAlpha"/>
<feOffset dy="1"/>
<feGaussianBlur stdDeviation="1"/>
<feColorMatrix type="matrix" values="0 0 0 0 0 0 0 0 0 0 0 0 0 0 0 0 0 0 0.161 0"/>
<feBlend mode="normal" in2="BackgroundImageFix" result="effect1_dropShadow_2936_16331"/>
<feBlend mode="normal" in="SourceGraphic" in2="effect1_dropShadow_2936_16331" result="shape"/>
</filter>
<filter id="filter8_d_2936_16331" x="887.729" y="468.574" width="58.7" height="86.7998" filterUnits="userSpaceOnUse" color-interpolation-filters="sRGB">
<feFlood flood-opacity="0" result="BackgroundImageFix"/>
<feColorMatrix in="SourceAlpha" type="matrix" values="0 0 0 0 0 0 0 0 0 0 0 0 0 0 0 0 0 0 127 0" result="hardAlpha"/>
<feOffset dy="1"/>
<feGaussianBlur stdDeviation="1"/>
<feColorMatrix type="matrix" values="0 0 0 0 0 0 0 0 0 0 0 0 0 0 0 0 0 0 0.161 0"/>
<feBlend mode="normal" in2="BackgroundImageFix" result="effect1_dropShadow_2936_16331"/>
<feBlend mode="normal" in="SourceGraphic" in2="effect1_dropShadow_2936_16331" result="shape"/>
</filter>
<filter id="filter9_d_2936_16331" x="257.794" y="306.258" width="197.18" height="136.053" filterUnits="userSpaceOnUse" color-interpolation-filters="sRGB">
<feFlood flood-opacity="0" result="BackgroundImageFix"/>
<feColorMatrix in="SourceAlpha" type="matrix" values="0 0 0 0 0 0 0 0 0 0 0 0 0 0 0 0 0 0 127 0" result="hardAlpha"/>
<feOffset dy="3"/>
<feGaussianBlur stdDeviation="3"/>
<feColorMatrix type="matrix" values="0 0 0 0 0.509804 0 0 0 0 0.611765 0 0 0 0 0.945098 0 0 0 0.18 0"/>
<feBlend mode="normal" in2="BackgroundImageFix" result="effect1_dropShadow_2936_16331"/>
<feBlend mode="normal" in="SourceGraphic" in2="effect1_dropShadow_2936_16331" result="shape"/>
</filter>
<filter id="filter10_d_2936_16331" x="257.794" y="306.258" width="197.18" height="22.7871" filterUnits="userSpaceOnUse" color-interpolation-filters="sRGB">
<feFlood flood-opacity="0" result="BackgroundImageFix"/>
<feColorMatrix in="SourceAlpha" type="matrix" values="0 0 0 0 0 0 0 0 0 0 0 0 0 0 0 0 0 0 127 0" result="hardAlpha"/>
<feOffset dy="3"/>
<feGaussianBlur stdDeviation="3"/>
<feColorMatrix type="matrix" values="0 0 0 0 0.509804 0 0 0 0 0.611765 0 0 0 0 0.945098 0 0 0 0.18 0"/>
<feBlend mode="normal" in2="BackgroundImageFix" result="effect1_dropShadow_2936_16331"/>
<feBlend mode="normal" in="SourceGraphic" in2="effect1_dropShadow_2936_16331" result="shape"/>
</filter>
<filter id="filter11_d_2936_16331" x="331.05" y="590.673" width="35.297" height="31.9209" filterUnits="userSpaceOnUse" color-interpolation-filters="sRGB">
<feFlood flood-opacity="0" result="BackgroundImageFix"/>
<feColorMatrix in="SourceAlpha" type="matrix" values="0 0 0 0 0 0 0 0 0 0 0 0 0 0 0 0 0 0 127 0" result="hardAlpha"/>
<feOffset dy="1"/>
<feGaussianBlur stdDeviation="1"/>
<feColorMatrix type="matrix" values="0 0 0 0 0 0 0 0 0 0 0 0 0 0 0 0 0 0 0.161 0"/>
<feBlend mode="normal" in2="BackgroundImageFix" result="effect1_dropShadow_2936_16331"/>
<feBlend mode="normal" in="SourceGraphic" in2="effect1_dropShadow_2936_16331" result="shape"/>
</filter>
<filter id="filter12_d_2936_16331" x="326.928" y="622.568" width="45.426" height="52.333" filterUnits="userSpaceOnUse" color-interpolation-filters="sRGB">
<feFlood flood-opacity="0" result="BackgroundImageFix"/>
<feColorMatrix in="SourceAlpha" type="matrix" values="0 0 0 0 0 0 0 0 0 0 0 0 0 0 0 0 0 0 127 0" result="hardAlpha"/>
<feOffset dy="1"/>
<feGaussianBlur stdDeviation="1"/>
<feColorMatrix type="matrix" values="0 0 0 0 0 0 0 0 0 0 0 0 0 0 0 0 0 0 0.161 0"/>
<feBlend mode="normal" in2="BackgroundImageFix" result="effect1_dropShadow_2936_16331"/>
<feBlend mode="normal" in="SourceGraphic" in2="effect1_dropShadow_2936_16331" result="shape"/>
</filter>
<filter id="filter13_d_2936_16331" x="321.178" y="591.235" width="15.7822" height="22.0713" filterUnits="userSpaceOnUse" color-interpolation-filters="sRGB">
<feFlood flood-opacity="0" result="BackgroundImageFix"/>
<feColorMatrix in="SourceAlpha" type="matrix" values="0 0 0 0 0 0 0 0 0 0 0 0 0 0 0 0 0 0 127 0" result="hardAlpha"/>
<feOffset/>
<feGaussianBlur stdDeviation="1.5"/>
<feColorMatrix type="matrix" values="0 0 0 0 0 0 0 0 0 0 0 0 0 0 0 0 0 0 0.161 0"/>
<feBlend mode="normal" in2="BackgroundImageFix" result="effect1_dropShadow_2936_16331"/>
<feBlend mode="normal" in="SourceGraphic" in2="effect1_dropShadow_2936_16331" result="shape"/>
</filter>
<filter id="filter14_d_2936_16331" x="334.864" y="617.929" width="20.7161" height="25.3047" filterUnits="userSpaceOnUse" color-interpolation-filters="sRGB">
<feFlood flood-opacity="0" result="BackgroundImageFix"/>
<feColorMatrix in="SourceAlpha" type="matrix" values="0 0 0 0 0 0 0 0 0 0 0 0 0 0 0 0 0 0 127 0" result="hardAlpha"/>
<feOffset dy="3"/>
<feGaussianBlur stdDeviation="3"/>
<feColorMatrix type="matrix" values="0 0 0 0 0 0 0 0 0 0 0 0 0 0 0 0 0 0 0.161 0"/>
<feBlend mode="normal" in2="BackgroundImageFix" result="effect1_dropShadow_2936_16331"/>
<feBlend mode="normal" in="SourceGraphic" in2="effect1_dropShadow_2936_16331" result="shape"/>
</filter>
<filter id="filter15_d_2936_16331" x="360.309" y="591.235" width="15.7822" height="22.0713" filterUnits="userSpaceOnUse" color-interpolation-filters="sRGB">
<feFlood flood-opacity="0" result="BackgroundImageFix"/>
<feColorMatrix in="SourceAlpha" type="matrix" values="0 0 0 0 0 0 0 0 0 0 0 0 0 0 0 0 0 0 127 0" result="hardAlpha"/>
<feOffset/>
<feGaussianBlur stdDeviation="1.5"/>
<feColorMatrix type="matrix" values="0 0 0 0 0 0 0 0 0 0 0 0 0 0 0 0 0 0 0.161 0"/>
<feBlend mode="normal" in2="BackgroundImageFix" result="effect1_dropShadow_2936_16331"/>
<feBlend mode="normal" in="SourceGraphic" in2="effect1_dropShadow_2936_16331" result="shape"/>
</filter>
<filter id="filter16_d_2936_16331" x="343.591" y="617.929" width="20.4914" height="25.3047" filterUnits="userSpaceOnUse" color-interpolation-filters="sRGB">
<feFlood flood-opacity="0" result="BackgroundImageFix"/>
<feColorMatrix in="SourceAlpha" type="matrix" values="0 0 0 0 0 0 0 0 0 0 0 0 0 0 0 0 0 0 127 0" result="hardAlpha"/>
<feOffset dy="3"/>
<feGaussianBlur stdDeviation="3"/>
<feColorMatrix type="matrix" values="0 0 0 0 0 0 0 0 0 0 0 0 0 0 0 0 0 0 0.161 0"/>
<feBlend mode="normal" in2="BackgroundImageFix" result="effect1_dropShadow_2936_16331"/>
<feBlend mode="normal" in="SourceGraphic" in2="effect1_dropShadow_2936_16331" result="shape"/>
</filter>
<filter id="filter17_d_2936_16331" x="354.908" y="629.336" width="38.1339" height="53.9102" filterUnits="userSpaceOnUse" color-interpolation-filters="sRGB">
<feFlood flood-opacity="0" result="BackgroundImageFix"/>
<feColorMatrix in="SourceAlpha" type="matrix" values="0 0 0 0 0 0 0 0 0 0 0 0 0 0 0 0 0 0 127 0" result="hardAlpha"/>
<feOffset dy="1"/>
<feGaussianBlur stdDeviation="1"/>
<feColorMatrix type="matrix" values="0 0 0 0 0 0 0 0 0 0 0 0 0 0 0 0 0 0 0.161 0"/>
<feBlend mode="normal" in2="BackgroundImageFix" result="effect1_dropShadow_2936_16331"/>
<feBlend mode="normal" in="SourceGraphic" in2="effect1_dropShadow_2936_16331" result="shape"/>
</filter>
<filter id="filter18_d_2936_16331" x="307.819" y="630.841" width="38.1352" height="53.4014" filterUnits="userSpaceOnUse" color-interpolation-filters="sRGB">
<feFlood flood-opacity="0" result="BackgroundImageFix"/>
<feColorMatrix in="SourceAlpha" type="matrix" values="0 0 0 0 0 0 0 0 0 0 0 0 0 0 0 0 0 0 127 0" result="hardAlpha"/>
<feOffset dy="1"/>
<feGaussianBlur stdDeviation="1"/>
<feColorMatrix type="matrix" values="0 0 0 0 0 0 0 0 0 0 0 0 0 0 0 0 0 0 0.161 0"/>
<feBlend mode="normal" in2="BackgroundImageFix" result="effect1_dropShadow_2936_16331"/>
<feBlend mode="normal" in="SourceGraphic" in2="effect1_dropShadow_2936_16331" result="shape"/>
</filter>
<filter id="filter19_d_2936_16331" x="357.975" y="595.214" width="87.164" height="56.4561" filterUnits="userSpaceOnUse" color-interpolation-filters="sRGB">
<feFlood flood-opacity="0" result="BackgroundImageFix"/>
<feColorMatrix in="SourceAlpha" type="matrix" values="0 0 0 0 0 0 0 0 0 0 0 0 0 0 0 0 0 0 127 0" result="hardAlpha"/>
<feOffset dy="3"/>
<feGaussianBlur stdDeviation="8"/>
<feColorMatrix type="matrix" values="0 0 0 0 0.337255 0 0 0 0 0.333333 0 0 0 0 0.823529 0 0 0 0.188 0"/>
<feBlend mode="normal" in2="BackgroundImageFix" result="effect1_dropShadow_2936_16331"/>
<feBlend mode="normal" in="SourceGraphic" in2="effect1_dropShadow_2936_16331" result="shape"/>
</filter>
<filter id="filter20_d_2936_16331" x="288.558" y="560.613" width="54.3232" height="47.4316" filterUnits="userSpaceOnUse" color-interpolation-filters="sRGB">
<feFlood flood-opacity="0" result="BackgroundImageFix"/>
<feColorMatrix in="SourceAlpha" type="matrix" values="0 0 0 0 0 0 0 0 0 0 0 0 0 0 0 0 0 0 127 0" result="hardAlpha"/>
<feOffset dy="3"/>
<feGaussianBlur stdDeviation="8"/>
<feColorMatrix type="matrix" values="0 0 0 0 0.337255 0 0 0 0 0.333333 0 0 0 0 0.823529 0 0 0 0.188 0"/>
<feBlend mode="normal" in2="BackgroundImageFix" result="effect1_dropShadow_2936_16331"/>
<feBlend mode="normal" in="SourceGraphic" in2="effect1_dropShadow_2936_16331" result="shape"/>
</filter>
<filter id="filter21_d_2936_16331" x="250.956" y="586.723" width="43.4627" height="44.3613" filterUnits="userSpaceOnUse" color-interpolation-filters="sRGB">
<feFlood flood-opacity="0" result="BackgroundImageFix"/>
<feColorMatrix in="SourceAlpha" type="matrix" values="0 0 0 0 0 0 0 0 0 0 0 0 0 0 0 0 0 0 127 0" result="hardAlpha"/>
<feOffset dy="3"/>
<feGaussianBlur stdDeviation="3"/>
<feColorMatrix type="matrix" values="0 0 0 0 0 0 0 0 0 0 0 0 0 0 0 0 0 0 0.161 0"/>
<feBlend mode="normal" in2="BackgroundImageFix" result="effect1_dropShadow_2936_16331"/>
<feBlend mode="normal" in="SourceGraphic" in2="effect1_dropShadow_2936_16331" result="shape"/>
</filter>
<linearGradient id="paint0_linear_2936_16331" x1="345.193" y1="620.595" x2="348.836" y2="687.076" gradientUnits="userSpaceOnUse">
<stop stop-color="#FFE600" stop-opacity="0"/>
<stop offset="1" stop-color="#FFE500" stop-opacity="0.722"/>
</linearGradient>
</defs>
</svg>
