<svg width="282" height="97" viewBox="0 0 282 97" fill="none" xmlns="http://www.w3.org/2000/svg">
<path d="M57.2887 80.3084C57.2887 80.3084 6.23627 84.3007 1.00153 66.3344C-4.23321 48.3681 11.4718 17.7576 38.307 7.77489C65.1422 -2.20784 110.104 -3.38348 122.743 13.8154C131.755 25.7932 140.414 65.0036 122.743 74.9853C108.998 80.9747 85.9428 80.3084 82.1626 80.3084C76.5655 80.3084 57.2887 96.2795 57.2887 96.2795V80.3084Z" fill="#EE0033"/>
<path d="M64.7072 72.1473C64.7072 72.1473 23.3972 75.3589 20.3267 64.8221C17.2561 54.2852 29.0948 32.4012 44.8341 26.5465C60.5735 20.6917 99.0726 20.8254 106.485 30.9133C111.771 37.9385 119.634 63.077 109.263 68.9307C101.203 72.4433 81.5125 72.1463 79.2961 72.1463C76.0127 72.1463 64.7081 81.5137 64.7081 81.5137L64.7072 72.1473Z" fill="white"/>
<path d="M28.8251 25.155C31.471 25.155 33.6159 22.9742 33.6159 20.284C33.6159 17.5939 31.471 15.4131 28.8251 15.4131C26.1792 15.4131 24.0342 17.5939 24.0342 20.284C24.0342 22.9742 26.1792 25.155 28.8251 25.155Z" fill="white"/>
<path d="M108.684 22.7614C111.33 22.7614 113.475 20.5806 113.475 17.8905C113.475 15.2003 111.33 13.0195 108.684 13.0195C106.038 13.0195 103.893 15.2003 103.893 17.8905C103.893 20.5806 106.038 22.7614 108.684 22.7614Z" fill="white"/>
<path d="M45.7807 32.4257L30.2754 19.1982L27.9101 22.0641L43.4154 35.2916L45.7807 32.4257Z" fill="white"/>
<path d="M96.0029 35.8764L109.282 20.3457L106.505 17.8913L93.2257 33.422L96.0029 35.8764Z" fill="white"/>
<path d="M55.9764 54.3848C59.5048 54.3848 62.3652 51.4766 62.3652 47.8892C62.3652 44.3017 59.5048 41.3936 55.9764 41.3936C52.4479 41.3936 49.5876 44.3017 49.5876 47.8892C49.5876 51.4766 52.4479 54.3848 55.9764 54.3848Z" fill="#EE0033"/>
<path d="M97.5035 54.3848C101.032 54.3848 103.892 51.4766 103.892 47.8892C103.892 44.3017 101.032 41.3936 97.5035 41.3936C93.9751 41.3936 91.1147 44.3017 91.1147 47.8892C91.1147 51.4766 93.9751 54.3848 97.5035 54.3848Z" fill="#EE0033"/>
<path d="M82.7421 52.7686C83.1233 53.0659 83.1944 53.6199 82.8572 53.9662C82.1963 54.6449 81.4181 55.2022 80.5578 55.6099C79.4332 56.143 78.1995 56.4056 76.9553 56.3767C75.7111 56.3479 74.4909 56.0285 73.3921 55.444C72.5517 54.9969 71.8001 54.4041 71.1713 53.6956C70.8505 53.334 70.9472 52.7839 71.3417 52.5046C71.7362 52.2253 72.2784 52.3238 72.6102 52.6753C73.0736 53.1661 73.615 53.5798 74.2143 53.8986C75.072 54.3549 76.0245 54.6043 76.9958 54.6268C77.9671 54.6492 78.9302 54.4442 79.8081 54.0281C80.4215 53.7374 80.9815 53.3492 81.4671 52.8804C81.8148 52.5447 82.361 52.4713 82.7421 52.7686Z" fill="#EE0033"/>
<path d="M157.305 76.9095C157.652 77.0828 157.852 77.3562 157.905 77.7295C157.972 78.1028 157.879 78.4428 157.625 78.7495C157.452 78.9895 157.225 79.1228 156.945 79.1495C156.679 79.1762 156.405 79.1228 156.125 78.9895C155.805 78.8428 155.465 78.7295 155.105 78.6495C154.759 78.5695 154.392 78.5295 154.005 78.5295C153.285 78.5295 152.639 78.6428 152.065 78.8695C151.505 79.0962 151.025 79.4228 150.625 79.8495C150.225 80.2628 149.919 80.7562 149.705 81.3295C149.505 81.9028 149.405 82.5362 149.405 83.2295C149.405 84.0428 149.519 84.7495 149.745 85.3495C149.985 85.9495 150.312 86.4495 150.725 86.8495C151.139 87.2495 151.625 87.5495 152.185 87.7495C152.745 87.9362 153.352 88.0295 154.005 88.0295C154.365 88.0295 154.725 87.9962 155.085 87.9295C155.445 87.8628 155.792 87.7428 156.125 87.5695C156.405 87.4362 156.679 87.3895 156.945 87.4295C157.225 87.4695 157.459 87.6095 157.645 87.8495C157.912 88.1828 158.005 88.5295 157.925 88.8895C157.859 89.2362 157.659 89.4895 157.325 89.6495C156.979 89.8228 156.619 89.9695 156.245 90.0895C155.885 90.1962 155.519 90.2762 155.145 90.3295C154.772 90.3962 154.392 90.4295 154.005 90.4295C153.045 90.4295 152.132 90.2762 151.265 89.9695C150.412 89.6628 149.645 89.2095 148.965 88.6095C148.299 88.0095 147.772 87.2628 147.385 86.3695C146.999 85.4628 146.805 84.4162 146.805 83.2295C146.805 82.2028 146.979 81.2562 147.325 80.3895C147.685 79.5228 148.185 78.7762 148.825 78.1495C149.479 77.5095 150.245 77.0162 151.125 76.6695C152.005 76.3095 152.965 76.1295 154.005 76.1295C154.592 76.1295 155.165 76.1962 155.725 76.3295C156.285 76.4628 156.812 76.6562 157.305 76.9095ZM165.464 79.3295C166.424 79.3295 167.151 79.5362 167.644 79.9495C168.151 80.3628 168.498 80.9162 168.684 81.6095C168.871 82.2895 168.964 83.0495 168.964 83.8895V89.0095C168.964 89.3562 168.851 89.6495 168.624 89.8895C168.398 90.1162 168.111 90.2295 167.764 90.2295C167.418 90.2295 167.131 90.1162 166.904 89.8895C166.678 89.6495 166.564 89.3562 166.564 89.0095V83.8895C166.564 83.4495 166.511 83.0562 166.404 82.7095C166.298 82.3495 166.104 82.0628 165.824 81.8495C165.544 81.6362 165.144 81.5295 164.624 81.5295C164.118 81.5295 163.684 81.6362 163.324 81.8495C162.964 82.0628 162.691 82.3495 162.504 82.7095C162.331 83.0562 162.244 83.4495 162.244 83.8895V89.0095C162.244 89.3562 162.131 89.6495 161.904 89.8895C161.678 90.1162 161.391 90.2295 161.044 90.2295C160.698 90.2295 160.411 90.1162 160.184 89.8895C159.958 89.6495 159.844 89.3562 159.844 89.0095V76.6495C159.844 76.3028 159.958 76.0162 160.184 75.7895C160.411 75.5495 160.698 75.4295 161.044 75.4295C161.391 75.4295 161.678 75.5495 161.904 75.7895C162.131 76.0162 162.244 76.3028 162.244 76.6495V81.6095L161.944 81.5495C162.064 81.3228 162.231 81.0828 162.444 80.8295C162.658 80.5628 162.918 80.3162 163.224 80.0895C163.531 79.8628 163.871 79.6828 164.244 79.5495C164.618 79.4028 165.024 79.3295 165.464 79.3295ZM180.323 79.3295C180.67 79.3295 180.957 79.4428 181.183 79.6695C181.41 79.8962 181.523 80.1895 181.523 80.5495V89.0095C181.523 89.3562 181.41 89.6495 181.183 89.8895C180.957 90.1162 180.67 90.2295 180.323 90.2295C179.977 90.2295 179.69 90.1162 179.463 89.8895C179.237 89.6495 179.123 89.3562 179.123 89.0095V88.0295L179.563 88.2095C179.563 88.3828 179.47 88.5962 179.283 88.8495C179.097 89.0895 178.843 89.3295 178.523 89.5695C178.203 89.8095 177.823 90.0162 177.383 90.1895C176.957 90.3495 176.49 90.4295 175.983 90.4295C175.063 90.4295 174.23 90.1962 173.483 89.7295C172.737 89.2495 172.143 88.5962 171.703 87.7695C171.277 86.9295 171.063 85.9695 171.063 84.8895C171.063 83.7962 171.277 82.8362 171.703 82.0095C172.143 81.1695 172.73 80.5162 173.463 80.0495C174.197 79.5695 175.01 79.3295 175.903 79.3295C176.477 79.3295 177.003 79.4162 177.483 79.5895C177.963 79.7628 178.377 79.9828 178.723 80.2495C179.083 80.5162 179.357 80.7895 179.543 81.0695C179.743 81.3362 179.843 81.5628 179.843 81.7495L179.123 82.0095V80.5495C179.123 80.2028 179.237 79.9162 179.463 79.6895C179.69 79.4495 179.977 79.3295 180.323 79.3295ZM176.283 88.2295C176.87 88.2295 177.383 88.0828 177.823 87.7895C178.263 87.4962 178.603 87.0962 178.843 86.5895C179.097 86.0828 179.223 85.5162 179.223 84.8895C179.223 84.2495 179.097 83.6762 178.843 83.1695C178.603 82.6628 178.263 82.2628 177.823 81.9695C177.383 81.6762 176.87 81.5295 176.283 81.5295C175.71 81.5295 175.203 81.6762 174.763 81.9695C174.323 82.2628 173.977 82.6628 173.723 83.1695C173.483 83.6762 173.363 84.2495 173.363 84.8895C173.363 85.5162 173.483 86.0828 173.723 86.5895C173.977 87.0962 174.323 87.4962 174.763 87.7895C175.203 88.0828 175.71 88.2295 176.283 88.2295ZM184.242 79.7295H188.982C189.302 79.7295 189.568 79.8362 189.782 80.0495C189.995 80.2628 190.102 80.5295 190.102 80.8495C190.102 81.1562 189.995 81.4162 189.782 81.6295C189.568 81.8295 189.302 81.9295 188.982 81.9295H184.242C183.922 81.9295 183.655 81.8228 183.442 81.6095C183.228 81.3962 183.122 81.1295 183.122 80.8095C183.122 80.5028 183.228 80.2495 183.442 80.0495C183.655 79.8362 183.922 79.7295 184.242 79.7295ZM186.382 77.2295C186.728 77.2295 187.008 77.3495 187.222 77.5895C187.448 77.8162 187.562 78.1028 187.562 78.4495V87.3495C187.562 87.5362 187.595 87.6895 187.662 87.8095C187.742 87.9295 187.842 88.0162 187.962 88.0695C188.095 88.1228 188.235 88.1495 188.382 88.1495C188.542 88.1495 188.688 88.1228 188.822 88.0695C188.955 88.0028 189.108 87.9695 189.282 87.9695C189.468 87.9695 189.635 88.0562 189.782 88.2295C189.942 88.4028 190.022 88.6428 190.022 88.9495C190.022 89.3228 189.815 89.6295 189.402 89.8695C189.002 90.1095 188.568 90.2295 188.102 90.2295C187.822 90.2295 187.508 90.2095 187.162 90.1695C186.828 90.1162 186.508 90.0028 186.202 89.8295C185.908 89.6428 185.662 89.3628 185.462 88.9895C185.262 88.6162 185.162 88.1028 185.162 87.4495V78.4495C185.162 78.1028 185.275 77.8162 185.502 77.5895C185.742 77.3495 186.035 77.2295 186.382 77.2295ZM203.891 76.2295C204.584 76.2295 205.231 76.4295 205.831 76.8295C206.444 77.2295 206.938 77.7695 207.311 78.4495C207.684 79.1295 207.871 79.8895 207.871 80.7295C207.871 81.5562 207.684 82.3095 207.311 82.9895C206.938 83.6695 206.444 84.2162 205.831 84.6295C205.231 85.0295 204.584 85.2295 203.891 85.2295H200.211L200.411 84.8695V89.0095C200.411 89.3562 200.304 89.6495 200.091 89.8895C199.878 90.1162 199.598 90.2295 199.251 90.2295C198.918 90.2295 198.644 90.1162 198.431 89.8895C198.218 89.6495 198.111 89.3562 198.111 89.0095V77.4495C198.111 77.1028 198.224 76.8162 198.451 76.5895C198.691 76.3495 198.984 76.2295 199.331 76.2295H203.891ZM203.891 82.9495C204.144 82.9495 204.391 82.8428 204.631 82.6295C204.871 82.4162 205.071 82.1428 205.231 81.8095C205.391 81.4628 205.471 81.1028 205.471 80.7295C205.471 80.3428 205.391 79.9828 205.231 79.6495C205.071 79.3162 204.871 79.0495 204.631 78.8495C204.391 78.6362 204.144 78.5295 203.891 78.5295H200.171L200.411 78.1695V83.2695L200.191 82.9495H203.891ZM212.562 89.0095C212.562 89.3562 212.442 89.6495 212.202 89.8895C211.975 90.1162 211.688 90.2295 211.342 90.2295C211.008 90.2295 210.728 90.1162 210.502 89.8895C210.275 89.6495 210.162 89.3562 210.162 89.0095V76.6495C210.162 76.3028 210.275 76.0162 210.502 75.7895C210.742 75.5495 211.035 75.4295 211.382 75.4295C211.728 75.4295 212.008 75.5495 212.222 75.7895C212.448 76.0162 212.562 76.3028 212.562 76.6495V89.0095ZM224.112 79.3295C224.459 79.3295 224.746 79.4428 224.972 79.6695C225.199 79.8962 225.312 80.1895 225.312 80.5495V89.0095C225.312 89.3562 225.199 89.6495 224.972 89.8895C224.746 90.1162 224.459 90.2295 224.112 90.2295C223.766 90.2295 223.479 90.1162 223.252 89.8895C223.026 89.6495 222.912 89.3562 222.912 89.0095V88.0295L223.352 88.2095C223.352 88.3828 223.259 88.5962 223.072 88.8495C222.886 89.0895 222.632 89.3295 222.312 89.5695C221.992 89.8095 221.612 90.0162 221.172 90.1895C220.746 90.3495 220.279 90.4295 219.772 90.4295C218.852 90.4295 218.019 90.1962 217.272 89.7295C216.526 89.2495 215.932 88.5962 215.492 87.7695C215.066 86.9295 214.852 85.9695 214.852 84.8895C214.852 83.7962 215.066 82.8362 215.492 82.0095C215.932 81.1695 216.519 80.5162 217.252 80.0495C217.986 79.5695 218.799 79.3295 219.692 79.3295C220.266 79.3295 220.792 79.4162 221.272 79.5895C221.752 79.7628 222.166 79.9828 222.512 80.2495C222.872 80.5162 223.146 80.7895 223.332 81.0695C223.532 81.3362 223.632 81.5628 223.632 81.7495L222.912 82.0095V80.5495C222.912 80.2028 223.026 79.9162 223.252 79.6895C223.479 79.4495 223.766 79.3295 224.112 79.3295ZM220.072 88.2295C220.659 88.2295 221.172 88.0828 221.612 87.7895C222.052 87.4962 222.392 87.0962 222.632 86.5895C222.886 86.0828 223.012 85.5162 223.012 84.8895C223.012 84.2495 222.886 83.6762 222.632 83.1695C222.392 82.6628 222.052 82.2628 221.612 81.9695C221.172 81.6762 220.659 81.5295 220.072 81.5295C219.499 81.5295 218.992 81.6762 218.552 81.9695C218.112 82.2628 217.766 82.6628 217.512 83.1695C217.272 83.6762 217.152 84.2495 217.152 84.8895C217.152 85.5162 217.272 86.0828 217.512 86.5895C217.766 87.0962 218.112 87.4962 218.552 87.7895C218.992 88.0828 219.499 88.2295 220.072 88.2295ZM228.031 79.7295H232.771C233.091 79.7295 233.358 79.8362 233.571 80.0495C233.784 80.2628 233.891 80.5295 233.891 80.8495C233.891 81.1562 233.784 81.4162 233.571 81.6295C233.358 81.8295 233.091 81.9295 232.771 81.9295H228.031C227.711 81.9295 227.444 81.8228 227.231 81.6095C227.018 81.3962 226.911 81.1295 226.911 80.8095C226.911 80.5028 227.018 80.2495 227.231 80.0495C227.444 79.8362 227.711 79.7295 228.031 79.7295ZM230.171 77.2295C230.518 77.2295 230.798 77.3495 231.011 77.5895C231.238 77.8162 231.351 78.1028 231.351 78.4495V87.3495C231.351 87.5362 231.384 87.6895 231.451 87.8095C231.531 87.9295 231.631 88.0162 231.751 88.0695C231.884 88.1228 232.024 88.1495 232.171 88.1495C232.331 88.1495 232.478 88.1228 232.611 88.0695C232.744 88.0028 232.898 87.9695 233.071 87.9695C233.258 87.9695 233.424 88.0562 233.571 88.2295C233.731 88.4028 233.811 88.6428 233.811 88.9495C233.811 89.3228 233.604 89.6295 233.191 89.8695C232.791 90.1095 232.358 90.2295 231.891 90.2295C231.611 90.2295 231.298 90.2095 230.951 90.1695C230.618 90.1162 230.298 90.0028 229.991 89.8295C229.698 89.6428 229.451 89.3628 229.251 88.9895C229.051 88.6162 228.951 88.1028 228.951 87.4495V78.4495C228.951 78.1028 229.064 77.8162 229.291 77.5895C229.531 77.3495 229.824 77.2295 230.171 77.2295ZM241.087 75.4295C241.38 75.4295 241.667 75.4695 241.947 75.5495C242.227 75.6295 242.46 75.7628 242.647 75.9495C242.833 76.1228 242.927 76.3562 242.927 76.6495C242.927 76.9828 242.827 77.2495 242.627 77.4495C242.44 77.6362 242.22 77.7295 241.967 77.7295C241.847 77.7295 241.667 77.7028 241.427 77.6495C241.187 77.5828 240.953 77.5495 240.727 77.5495C240.393 77.5495 240.133 77.6228 239.947 77.7695C239.773 77.9162 239.653 78.0895 239.587 78.2895C239.52 78.4762 239.487 78.6428 239.487 78.7895V89.0095C239.487 89.3562 239.373 89.6495 239.147 89.8895C238.92 90.1162 238.633 90.2295 238.287 90.2295C237.94 90.2295 237.653 90.1162 237.427 89.8895C237.2 89.6495 237.087 89.3562 237.087 89.0095V78.8095C237.087 77.8628 237.42 77.0628 238.087 76.4095C238.753 75.7562 239.753 75.4295 241.087 75.4295ZM241.307 79.7295C241.627 79.7295 241.893 79.8362 242.107 80.0495C242.32 80.2495 242.427 80.5095 242.427 80.8295C242.427 81.1495 242.32 81.4162 242.107 81.6295C241.893 81.8295 241.627 81.9295 241.307 81.9295H236.007C235.687 81.9295 235.42 81.8295 235.207 81.6295C234.993 81.4162 234.887 81.1495 234.887 80.8295C234.887 80.5095 234.993 80.2495 235.207 80.0495C235.42 79.8362 235.687 79.7295 236.007 79.7295H241.307ZM254.092 84.8895C254.092 85.9828 253.845 86.9495 253.352 87.7895C252.872 88.6162 252.218 89.2628 251.392 89.7295C250.578 90.1962 249.665 90.4295 248.652 90.4295C247.638 90.4295 246.718 90.1962 245.892 89.7295C245.078 89.2628 244.425 88.6162 243.932 87.7895C243.452 86.9495 243.212 85.9828 243.212 84.8895C243.212 83.7962 243.452 82.8362 243.932 82.0095C244.425 81.1695 245.078 80.5162 245.892 80.0495C246.718 79.5695 247.638 79.3295 248.652 79.3295C249.665 79.3295 250.578 79.5695 251.392 80.0495C252.218 80.5162 252.872 81.1695 253.352 82.0095C253.845 82.8362 254.092 83.7962 254.092 84.8895ZM251.692 84.8895C251.692 84.2095 251.552 83.6228 251.272 83.1295C251.005 82.6228 250.638 82.2295 250.172 81.9495C249.718 81.6695 249.212 81.5295 248.652 81.5295C248.092 81.5295 247.578 81.6695 247.112 81.9495C246.658 82.2295 246.292 82.6228 246.012 83.1295C245.745 83.6228 245.612 84.2095 245.612 84.8895C245.612 85.5562 245.745 86.1428 246.012 86.6495C246.292 87.1428 246.658 87.5295 247.112 87.8095C247.578 88.0895 248.092 88.2295 248.652 88.2295C249.212 88.2295 249.718 88.0895 250.172 87.8095C250.638 87.5295 251.005 87.1428 251.272 86.6495C251.552 86.1428 251.692 85.5562 251.692 84.8895ZM257.392 90.2295C257.045 90.2295 256.759 90.1162 256.532 89.8895C256.305 89.6495 256.192 89.3562 256.192 89.0095V80.7495C256.192 80.4028 256.305 80.1162 256.532 79.8895C256.759 79.6495 257.045 79.5295 257.392 79.5295C257.739 79.5295 258.025 79.6495 258.252 79.8895C258.479 80.1162 258.592 80.4028 258.592 80.7495V82.6295L258.452 81.2895C258.599 80.9695 258.785 80.6895 259.012 80.4495C259.252 80.1962 259.519 79.9895 259.812 79.8295C260.105 79.6562 260.419 79.5295 260.752 79.4495C261.085 79.3695 261.419 79.3295 261.752 79.3295C262.152 79.3295 262.485 79.4428 262.752 79.6695C263.032 79.8962 263.172 80.1628 263.172 80.4695C263.172 80.9095 263.059 81.2295 262.832 81.4295C262.605 81.6162 262.359 81.7095 262.092 81.7095C261.839 81.7095 261.605 81.6628 261.392 81.5695C261.192 81.4762 260.959 81.4295 260.692 81.4295C260.452 81.4295 260.205 81.4895 259.952 81.6095C259.712 81.7162 259.485 81.8895 259.272 82.1295C259.072 82.3695 258.905 82.6695 258.772 83.0295C258.652 83.3762 258.592 83.7895 258.592 84.2695V89.0095C258.592 89.3562 258.479 89.6495 258.252 89.8895C258.025 90.1162 257.739 90.2295 257.392 90.2295ZM270.484 79.3295C271.551 79.3295 272.337 79.5895 272.844 80.1095C273.351 80.6162 273.684 81.2762 273.844 82.0895L273.504 81.9095L273.664 81.5895C273.824 81.2828 274.071 80.9562 274.404 80.6095C274.737 80.2495 275.137 79.9495 275.604 79.7095C276.084 79.4562 276.617 79.3295 277.204 79.3295C278.164 79.3295 278.891 79.5362 279.384 79.9495C279.891 80.3628 280.237 80.9162 280.424 81.6095C280.611 82.2895 280.704 83.0495 280.704 83.8895V89.0095C280.704 89.3562 280.591 89.6495 280.364 89.8895C280.137 90.1162 279.851 90.2295 279.504 90.2295C279.157 90.2295 278.871 90.1162 278.644 89.8895C278.417 89.6495 278.304 89.3562 278.304 89.0095V83.8895C278.304 83.4495 278.251 83.0562 278.144 82.7095C278.037 82.3495 277.844 82.0628 277.564 81.8495C277.284 81.6362 276.884 81.5295 276.364 81.5295C275.857 81.5295 275.424 81.6362 275.064 81.8495C274.704 82.0628 274.431 82.3495 274.244 82.7095C274.071 83.0562 273.984 83.4495 273.984 83.8895V89.0095C273.984 89.3562 273.871 89.6495 273.644 89.8895C273.417 90.1162 273.131 90.2295 272.784 90.2295C272.437 90.2295 272.151 90.1162 271.924 89.8895C271.697 89.6495 271.584 89.3562 271.584 89.0095V83.8895C271.584 83.4495 271.531 83.0562 271.424 82.7095C271.317 82.3495 271.124 82.0628 270.844 81.8495C270.564 81.6362 270.164 81.5295 269.644 81.5295C269.137 81.5295 268.704 81.6362 268.344 81.8495C267.984 82.0628 267.711 82.3495 267.524 82.7095C267.351 83.0562 267.264 83.4495 267.264 83.8895V89.0095C267.264 89.3562 267.151 89.6495 266.924 89.8895C266.697 90.1162 266.411 90.2295 266.064 90.2295C265.717 90.2295 265.431 90.1162 265.204 89.8895C264.977 89.6495 264.864 89.3562 264.864 89.0095V80.7495C264.864 80.4028 264.977 80.1162 265.204 79.8895C265.431 79.6495 265.717 79.5295 266.064 79.5295C266.411 79.5295 266.697 79.6495 266.924 79.8895C267.151 80.1162 267.264 80.4028 267.264 80.7495V81.6095L266.964 81.5495C267.084 81.3228 267.251 81.0828 267.464 80.8295C267.677 80.5628 267.937 80.3162 268.244 80.0895C268.551 79.8628 268.891 79.6828 269.264 79.5495C269.637 79.4028 270.044 79.3295 270.484 79.3295Z" fill="black"/>
<path d="M188.982 48.5042C188.439 49.532 187.873 50.0632 187.682 50.0632C187.491 50.0632 186.922 49.5161 186.382 48.5042L171.746 21.1844C170.623 19.2266 168.984 17.6076 167.006 16.4999C165.027 15.3922 162.783 14.8375 160.511 14.8948H152.911L177.474 56.9802C178.588 58.4972 180.095 59.6874 181.836 60.4249C183.577 61.1624 185.487 61.4197 187.363 61.1696H187.675C190.75 61.1696 195.381 61.1696 197.766 56.9772L211.752 33.3076C211.752 33.3076 207.794 27.0438 211.052 21.1844C214.311 15.3249 223.196 14.4102 223.196 14.4102L214.735 14.8948C212.461 14.8378 210.214 15.3945 208.235 16.5054C206.256 17.6162 204.618 19.2393 203.498 21.2012L188.982 48.5042Z" fill="#EE0033"/>
<path d="M244.019 19.0145C243.875 17.8866 231.904 12.0044 219.462 16.6775C207.019 21.3505 213.137 32.6481 213.762 33.3191C216.242 36.1925 219.377 38.4398 222.907 39.8753C227.399 42.1687 232.759 44.6227 232.759 46.5514C232.691 47.5451 232.317 48.4941 231.688 49.2702C231.058 50.0464 230.203 50.6123 229.238 50.8914C225.218 52.17 209.318 44.9924 208.132 45.1163C206.557 45.2798 203.7 54.6537 203.7 54.6537C207.779 57.3581 212.319 59.3058 217.101 60.4021C225.034 62.4051 236.141 63.3606 240.781 57.4456C240.635 57.2306 237.304 56.3951 237.066 54.6477C237.066 51.5664 240.027 46.3591 240.49 45.8081C241.011 45.2085 241.681 44.7544 242.434 44.4909C243.54 44.1757 245.784 45.3829 245.784 45.3829C244.55 42.4621 241.169 39.5542 241.169 39.5542C235.469 35.12 225.149 32.444 224.097 28.5529C223.045 24.6618 227.604 25.2822 227.604 25.2822L240.513 27.2347C241.946 24.6133 243.121 21.8608 244.02 19.0155L244.019 19.0145Z" fill="#EE0033"/>
<path d="M278.237 19.0145C278.093 17.8866 266.122 12.0044 253.679 16.6775C241.237 21.3505 247.354 32.6482 247.979 33.3191C250.458 36.1918 253.591 38.439 257.119 39.8753C261.611 42.1687 266.971 44.6227 266.971 46.5514C266.903 47.5451 266.529 48.4941 265.899 49.2702C265.269 50.0464 264.415 50.6123 263.45 50.8915C259.43 52.17 243.866 45.3413 242.68 45.4642C241.105 45.6277 237.816 53.176 238.411 54.846C239.006 56.516 246.533 59.3059 251.311 60.4061C259.245 62.4091 270.504 62.8729 275.144 56.958C281.674 49.1431 278.9 43.5285 274.273 39.1449C269.647 34.7612 259.359 32.445 258.307 28.5529C257.255 24.6608 261.814 25.2822 261.814 25.2822L274.722 27.2347C276.156 24.6133 277.33 21.8608 278.23 19.0155L278.237 19.0145Z" fill="#EE0033"/>
</svg>
